<svg
   class="github-svg"
   xmlns="http://www.w3.org/2000/svg"
   width="129.64583mm"
   height="35.71875mm"
   fill="#ffffff"
   viewBox="0 0 129.64583 35.71875">
   <g
      transform="translate(-25.135416,-122.375)">
      <path
         d="M 50.634617,137.89274 H 39.957092 c -0.275519,0 -0.49918,0.22366 -0.49918,0.49918 v 5.22041 c 0,0.27552 0.223661,0.49988 0.49918,0.49988 h 4.165247 v 6.48582 c 0,0 -0.935213,0.31892 -3.521074,0.31892 -3.05047,0 -7.312025,-1.11478 -7.312025,-10.48597 0,-9.37295 4.437591,-10.60591 8.603544,-10.60591 3.606094,0 5.159728,0.63464 6.148211,0.94086 0.310797,0.0949 0.597958,-0.21449 0.597958,-0.49001 l 1.191331,-5.04402 c 0,-0.12912 -0.04374,-0.28399 -0.1905,-0.38947 -0.401461,-0.2868 -2.850797,-1.65699 -9.038519,-1.65699 -7.127875,0 -14.4399,3.03247 -14.4399,17.61102 0,14.57924 8.371416,16.75165 15.425913,16.75165 5.840942,0 9.384242,-2.4959 9.384242,-2.4959 0.14605,-0.0808 0.161925,-0.28505 0.161925,-0.37854 v -16.28175 c 0,-0.27552 -0.223308,-0.49918 -0.498828,-0.49918"
         style="opacity:1;fill-opacity:1;fill-rule:nonzero;stroke:none;stroke-width:0.35277775"
         id="path24" />
      <path
         d="m 105.66209,124.93229 c 0,-0.27799 -0.22013,-0.50201 -0.49565,-0.50201 h -6.012039 c -0.274815,0 -0.497769,0.22402 -0.497769,0.50201 0,0.001 0.0013,11.61838 0.0013,11.61838 h -9.3711 v -11.61838 c 0,-0.27799 -0.221191,-0.50201 -0.496358,-0.50201 h -6.011688 c -0.273402,0 -0.496358,0.22402 -0.496358,0.50201 v 31.45966 c 0,0.27764 0.222956,0.50341 0.496358,0.50341 h 6.011688 c 0.275167,0 0.496358,-0.22577 0.496358,-0.50341 v -13.45671 h 9.371187 c 0,0 -0.01622,13.45565 -0.01622,13.45671 0,0.27764 0.222602,0.50341 0.498121,0.50341 h 6.02615 c 0.27517,0 0.4953,-0.22577 0.49601,-0.50341 z"
         style="opacity:1;fill-opacity:1;fill-rule:nonzero;stroke:none;stroke-width:0.35277775"
         id="path28" />
      <path
         d="m 61.549738,149.7556 v -14.52174 c 0,-0.27588 -0.22225,-0.5013 -0.497417,-0.5013 h -5.99299 c -0.275166,0 -0.521052,0.28363 -0.521052,0.55915 v 20.80578 c 0,0.61136 0.381,0.79339 0.874184,0.79339 h 5.399616 c 0.592315,0 0.737659,-0.29139 0.737659,-0.80327 z"
         style="opacity:1;fill-opacity:1;fill-rule:nonzero;stroke:none;stroke-width:0.35277775"
         id="path36" />
      <path
         d="m 128.51066,134.77976 h -5.96582 c -0.27376,0 -0.49636,0.22578 -0.49636,0.50341 v 15.42521 c 0,0 -1.51589,1.10914 -3.66713,1.10914 -2.15123,0 -2.72203,-0.97614 -2.72203,-3.08222 v -13.45213 c 0,-0.27763 -0.22225,-0.50341 -0.496,-0.50341 h -6.05508 c -0.27305,0 -0.49706,0.22578 -0.49706,0.50341 v 14.47024 c 0,6.25687 3.48685,7.78757 8.28357,7.78757 3.93559,0 7.10847,-2.17452 7.10847,-2.17452 0,0 0.15064,1.14582 0.21943,1.28164 0.0681,0.13547 0.24624,0.2727 0.43885,0.2727 l 3.85198,-0.0173 c 0.27305,0 0.49706,-0.22578 0.49706,-0.50236 l -0.002,-21.11798 c 0,-0.27764 -0.22296,-0.50341 -0.49777,-0.50341"
         style="opacity:1;fill-opacity:1;fill-rule:nonzero;stroke:none;stroke-width:0.35277775"
         id="path40" />
      <path
         d="m 142.46365,151.79854 c -2.06939,-0.0632 -3.4731,-1.00224 -3.4731,-1.00224 v -9.96245 c 0,0 1.38466,-0.84878 3.08364,-1.00048 2.14841,-0.19261 4.21851,0.4565 4.21851,5.5813 0,5.40455 -0.93415,6.471 -3.82905,6.38387 m 2.35303,-17.72532 c -3.38843,0 -5.69313,1.51165 -5.69313,1.51165 v -10.65248 c 0,-0.27799 -0.22225,-0.502 -0.496,-0.502 h -6.02932 c -0.27411,0 -0.49672,0.22401 -0.49672,0.502 v 31.45967 c 0,0.27763 0.22261,0.50306 0.49742,0.50306 h 4.18325 c 0.18838,0 0.33089,-0.097 0.43637,-0.26706 0.10408,-0.16898 0.25401,-1.45062 0.25401,-1.45062 0,0 2.46521,2.33645 7.1321,2.33645 5.47935,0 8.62155,-2.77918 8.62155,-12.47634 0,-9.69715 -5.01862,-10.96433 -8.40953,-10.96433"
         style="opacity:1;fill-opacity:1;fill-rule:nonzero;stroke:none;stroke-width:0.35277775"
         id="path44" />
      <path
         d="m 78.828792,134.72981 h -4.509911 c 0,0 -0.0067,-5.95666 -0.0067,-5.95807 0,-0.22542 -0.116062,-0.33831 -0.377118,-0.33831 h -6.145387 c -0.238832,0 -0.367242,0.10513 -0.367242,0.33514 v 6.15668 c 0,0 -3.07975,0.7433 -3.28789,0.80327 -0.207433,0.0603 -0.360185,0.25153 -0.360185,0.47943 v 3.86891 c 0,0.27834 0.22225,0.50306 0.497062,0.50306 h 3.151013 v 9.30769 c 0,6.91303 4.849281,7.59213 8.121295,7.59213 1.495425,0 3.284009,-0.48013 3.579284,-0.58914 0.178506,-0.0656 0.282575,-0.25082 0.282575,-0.4512 l 0.0049,-4.25591 c 0,-0.27764 -0.234598,-0.50236 -0.498475,-0.50236 -0.262821,0 -0.935214,0.10689 -1.627364,0.10689 -2.215092,0 -2.965802,-1.02976 -2.965802,-2.36325 0,-1.33209 -2.65e-4,-8.84485 -2.65e-4,-8.84485 h 4.510265 c 0.274815,0 0.497769,-0.22472 0.497769,-0.50306 v -4.84576 c 0,-0.27763 -0.222954,-0.50129 -0.497769,-0.50129"
         style="opacity:1;fill-opacity:1;fill-rule:nonzero;stroke:none;stroke-width:0.35277775"
         id="path48" />
   </g>
</svg>
