<svg
   class="linkedin-svg"
   xmlns="http://www.w3.org/2000/svg"
   width="200.09908mm"
   height="50.799999mm"
   fill="#ffffff"
   viewBox="0 0 200.09908 50.799999">
   <g
     transform="translate(-4.649867,-103.77857)">
    <g
       transform="matrix(0.35277777,0,0,-0.35277777,4.649867,154.57857)"
       style="fill-opacity:1;stroke:#ffffff;stroke-opacity:1">
      <g
         transform="scale(0.1)"
         style="fill-opacity:1;stroke:#ffffff;stroke-opacity:1">
        <path
           id="path22"
           style="fill-opacity:1;fill-rule:nonzero;stroke:#ffffff;stroke-opacity:1"
           d="M 1721.82,638.07 V 212.719 h -216.55 v 375.633 c 0,110.824 -47.13,145.003 -107.91,145.003 -64.26,0 -127.26,-48.343 -127.26,-147.765 V 212.719 h -216.55 v 687.738 h 208.26 v -95.285 h 2.76 c 20.96,42.34 94.1,114.621 205.83,114.621 120.84,0 251.42,-71.656 251.42,-281.723 z m 545.7,-48.34 276.27,-377.011 h -269.04 l -225.16,330.058 h -4.15 V 212.719 H 1828.89 V 1227.1 h 216.55 V 621.496 h 4.15 l 219.64,278.961 h 263.51 z M 3646.67,381.199 c -87.6,0 -167.97,63.813 -167.97,178.149 0,109.828 76.93,175.394 167.97,175.394 87.62,0 170.8,-68.066 170.8,-176.769 0,-107.129 -84.9,-176.774 -170.8,-176.774 z m 156.14,446.063 h -2.76 c -38.3,43.582 -109.98,92.531 -209.98,92.531 -171.75,0 -324.64,-134.781 -324.64,-360.445 0,-252.668 176.23,-365.969 327.4,-365.969 124.74,0 198.93,63.301 225.17,109.101 h 2.77 v -89.761 h 198.58 V 1227.1 H 3802.81 Z M 2706.97,635.305 c 4.87,73.039 63.06,131.199 152.49,131.199 94.31,0 139.41,-58.16 139.41,-131.199 z m 158.11,287.25 c -191.21,0 -367.89,-131.293 -367.89,-368.735 0,-238.808 175.74,-363.199 374.74,-363.199 149.85,0 252.8,69.391 309.07,146.379 l -150.95,96.941 c -25.65,-31.429 -69.8,-69.312 -152.42,-69.312 -91.1,0 -151.14,52.41 -166.93,108.687 -3.7,13.196 -3.73,21.129 -3.73,21.129 h 498.65 c 0.91,8.282 1.38,30.59 1.38,53.86 0,242.957 -150.62,374.25 -341.92,374.25 z M 229.355,418.488 H 623.418 V 212.719 H 0 V 1227.1 H 229.355 Z M 954.25,1120.54 c 0,-71.8 -55.898,-124.267 -124.852,-124.267 -68.957,0 -124.855,52.467 -124.855,124.267 0,71.79 55.898,124.32 124.855,124.32 68.954,0 124.852,-52.53 124.852,-124.32 z M 721.121,900.98 H 937.668 V 213.238 H 721.121 Z M 5459.39,212.711 H 5242.9 v 375.637 c 0,110.828 -47.12,145.004 -107.88,145.004 -64.24,0 -127.21,-48.344 -127.21,-147.766 V 212.711 h -216.49 v 687.742 h 208.2 v -95.285 h 2.76 c 20.95,42.34 94.07,114.621 205.77,114.621 120.8,0 251.34,-71.656 251.34,-281.726 z m -906.37,783.566 c -68.93,0 -124.81,52.463 -124.81,124.263 0,71.8 55.88,124.32 124.81,124.32 68.94,0 124.82,-52.52 124.82,-124.32 0,-71.8 -55.88,-124.263 -124.82,-124.263 z m 108.24,-783.039 h -216.48 v 687.746 h 216.48 z M 5565.8,1440 H 4338.36 c -58.7,0 -106.3,-47.59 -106.3,-106.3 V 106.301 C 4232.06,47.5898 4279.66,0 4338.36,0 H 5565.8 c 58.71,0 106.3,47.5898 106.3,106.301 V 1333.7 c 0,58.71 -47.59,106.3 -106.3,106.3" />
      </g>
    </g>
  </g>
</svg>
